Coordinates
version=1
nRows=16
nColumns=40
inDegrees=yes

Units are S.I. units (second, meters, Newtons, ...)
If the header above contains a line with 'inDegrees', this indicates whether rotational values are in degrees (yes) or radians (no).

endheader
time	pelvis_tilt	pelvis_list	pelvis_rotation	pelvis_tx	pelvis_ty	pelvis_tz	hip_flexion_r	hip_adduction_r	hip_rotation_r	knee_angle_r	knee_angle_r_beta	ankle_angle_r	subtalar_angle_r	mtp_angle_r	hip_flexion_l	hip_adduction_l	hip_rotation_l	knee_angle_l	knee_angle_l_beta	ankle_angle_l	subtalar_angle_l	mtp_angle_l	lumbar_extension	lumbar_bending	lumbar_rotation	arm_flex_r	arm_add_r	arm_rot_r	elbow_flex_r	pro_sup_r	wrist_flex_r	wrist_dev_r	arm_flex_l	arm_add_l	arm_rot_l	elbow_flex_l	pro_sup_l	wrist_flex_l	wrist_dev_l
      1.27000000	     -2.49451580	     -7.02915325	     87.51031147	      0.17594167	      0.96092877	      0.55084417	     26.16845805	     -3.87077241	     -0.12523712	     69.45695246	      1.21225251	     -9.21135853	      0.00000000	      0.00000000	     18.60637720	      5.47863196	     -1.63234132	     18.03339824	      0.31474217	      1.23672892	      0.00000000	      0.00000000	      2.63590231	     -2.99192685	      2.93236974	      0.00000000	      0.00000000	      0.00000000	      0.00000000	      0.00000000	      0.00000000	      0.00000000	      0.00000000	      0.00000000	      0.00000000	      0.00000000	      0.00000000	      0.00000000	      0.00000000
      1.28000000	     -2.21352943	     -7.00699087	     87.48445952	      0.17524216	      0.96207894	      0.54272941	     27.42615054	     -3.50811314	     -0.22718026	     69.17359656	      1.20730702	     -7.75331879	      0.00000000	      0.00000000	     17.81702493	      5.28686498	     -1.46140208	     17.65960462	      0.30821825	      1.48625528	      0.00000000	      0.00000000	      2.50638054	     -2.62068797	      2.74624433	      0.00000000	      0.00000000	      0.00000000	      0.00000000	      0.00000000	      0.00000000	      0.00000000	      0.00000000	      0.00000000	      0.00000000	      0.00000000	      0.00000000	      0.00000000	      0.00000000
      1.29000000	     -1.92836885	     -6.98087927	     87.48447453	      0.17457785	      0.96314927	      0.53461008	     28.57778592	     -3.16059670	     -0.39727026	     68.56304427	      1.19665087	     -6.36094226	      0.00000000	      0.00000000	     17.00508920	      5.08708946	     -1.29963630	     17.24778130	      0.30103057	      1.73856016	      0.00000000	      0.00000000	      2.37042554	     -2.25400757	      2.55105372	      0.00000000	      0.00000000	      0.00000000	      0.00000000	      0.00000000	      0.00000000	      0.00000000	      0.00000000	      0.00000000	      0.00000000	      0.00000000	      0.00000000	      0.00000000	      0.00000000
      1.30000000	     -1.68414751	     -6.98967900	     87.45579546	      0.17388586	      0.96413831	      0.52648370	     29.63947192	     -2.83007252	     -0.51128941	     67.55015619	      1.17897264	     -5.16459562	      0.00000000	      0.00000000	     16.23924356	      4.92838831	     -1.14830617	     16.84751190	      0.29404455	      1.96727802	      0.00000000	     -0.00000000	      2.28517490	     -1.88967150	      2.35835027	      0.00000000	     -0.00000000	      0.00000000	      0.00000000	      0.00000000	      0.00000000	      0.00000000	      0.00000000	     -0.00000000	     -0.00000000	      0.00000000	      0.00000000	     -0.00000000	      0.00000000
      1.31000000	     -1.40614730	     -6.91637688	     87.52858212	      0.17330886	      0.96511194	      0.51825370	     30.49424143	     -2.53951920	     -0.82834507	     66.26207247	      1.15649133	     -3.96349032	     -0.00000000	      0.00000000	     15.33958160	      4.73750855	     -0.95994031	     16.37006233	      0.28571149	      2.21373253	      0.00000000	     -0.00000000	      2.11429587	     -1.58820757	      2.12613360	     -0.00000000	      0.00000000	     -0.00000000	      0.00000000	      0.00000000	     -0.00000000	      0.00000000	     -0.00000000	     -0.00000000	     -0.00000000	      0.00000000	      0.00000000	     -0.00000000	     -0.00000000
      1.32000000	     -1.38809360	     -7.05806731	     87.49294764	      0.17271995	      0.96556058	      0.51015992	     31.54506806	     -2.47622418	     -0.95847911	     64.69223815	      1.12909256	     -3.39780865	     -0.00000000	     -0.00000000	     14.79825127	      4.75158593	     -1.21111451	     16.09387114	      0.28089104	      2.40183595	      0.00000000	     -0.00000000	      2.20376603	     -1.54655426	      2.07077071	     -0.00000000	      0.00000000	     -0.00000000	      0.00000000	      0.00000000	      0.00000000	      0.00000000	     -0.00000000	     -0.00000000	     -0.00000000	      0.00000000	      0.00000000	      0.00000000	      0.00000000
      1.33000000	     -0.93731352	     -6.92939114	     87.63037148	      0.17211424	      0.96652317	      0.50174410	     32.02687253	     -2.02888050	     -1.40199462	     62.69411974	      1.09421881	     -2.13880221	      0.00000000	      0.00000000	     13.70064113	      4.43160204	     -0.61760264	     15.37731441	      0.26838477	      2.66853524	      0.00000000	      0.00000000	      1.96262885	     -0.98523422	      1.70302897	      0.00000000	      0.00000000	      0.00000000	      0.00000000	      0.00000000	      0.00000000	      0.00000000	      0.00000000	      0.00000000	      0.00000000	      0.00000000	      0.00000000	      0.00000000	      0.00000000
      1.34000000	     -0.72950274	     -6.71373561	     87.75282605	      0.17147275	      0.96738907	      0.49327346	     32.33013539	     -1.89564951	     -1.85433054	     60.41658855	      1.05446839	     -1.47923400	      0.00000000	      0.00000000	     12.59421899	      4.32812044	     -0.39230111	     14.80106788	      0.25832737	      2.86409278	      0.00000000	      0.00000000	      1.63114071	     -0.73964108	      1.42023155	      0.00000000	      0.00000000	      0.00000000	      0.00000000	      0.00000000	      0.00000000	      0.00000000	      0.00000000	      0.00000000	      0.00000000	      0.00000000	      0.00000000	      0.00000000	      0.00000000
      1.35000000	     -0.56847652	     -6.66066549	     87.84072560	      0.17091541	      0.96785004	      0.48482420	     32.72270228	     -1.77374589	     -2.27350982	     57.90075164	      1.01055876	     -0.94652236	      0.00000000	      0.00000000	     11.67037773	      4.25235304	     -0.21807811	     14.23258472	      0.24840546	      3.05857165	      0.00000000	      0.00000000	      1.50778714	     -0.53535419	      1.20048211	      0.00000000	      0.00000000	      0.00000000	      0.00000000	      0.00000000	      0.00000000	      0.00000000	      0.00000000	      0.00000000	      0.00000000	      0.00000000	      0.00000000	      0.00000000	      0.00000000
      1.36000000	     -0.43589312	     -6.56299812	     87.94725281	      0.17036293	      0.96822304	      0.47625784	     32.94205143	     -1.70712064	     -2.76268929	     55.11851853	      0.96199963	     -0.54903712	      0.00000000	      0.00000000	     10.68011852	      4.20798278	     -0.02786139	     13.63566054	      0.23798717	      3.24711319	      0.00000000	     -0.00000000	      1.33915314	     -0.36747605	      0.96143171	     -0.00000000	     -0.00000000	     -0.00000000	      0.00000000	      0.00000000	      0.00000000	      0.00000000	      0.00000000	     -0.00000000	      0.00000000	      0.00000000	      0.00000000	     -0.00000000	      0.00000000
      1.37000000	     -0.33563454	     -6.49525424	     88.06507103	      0.16984316	      0.96838421	      0.46762606	     33.08594046	     -1.68015609	     -3.30856895	     52.10879245	      0.90947000	     -0.26132288	      0.00000000	     -0.00000000	      9.72083743	      4.19397167	      0.18179462	     13.04043245	      0.22759848	      3.43049026	     -0.00000000	     -0.00000000	      1.21372643	     -0.24048002	      0.73586369	     -0.00000000	     -0.00000000	     -0.00000000	      0.00000000	      0.00000000	      0.00000000	      0.00000000	      0.00000000	      0.00000000	      0.00000000	      0.00000000	      0.00000000	     -0.00000000	      0.00000000
      1.38000000	     -0.27251717	     -6.41363917	     88.19022058	      0.16935743	      0.96839139	      0.45889997	     33.11175587	     -1.70010808	     -3.92974138	     48.89479889	      0.85337523	     -0.09539890	      0.00000000	      0.00000000	      8.73487461	      4.21405667	      0.39237497	     12.43086287	      0.21695949	      3.61216264	      0.00000000	      0.00000000	      1.07892856	     -0.16112624	      0.52003902	      0.00000000	      0.00000000	      0.00000000	      0.00000000	      0.00000000	      0.00000000	      0.00000000	      0.00000000	      0.00000000	      0.00000000	      0.00000000	      0.00000000	      0.00000000	      0.00000000
      1.39000000	     -0.24605638	     -6.32586356	     88.31584848	      0.16892474	      0.96822295	      0.45007670	     33.03680564	     -1.74823292	     -4.60645539	     45.50419702	      0.79419806	     -0.03747429	      0.00000000	      0.00000000	      7.73174522	      4.26628653	      0.61232207	     11.81109679	      0.20614253	      3.79542648	      0.00000000	      0.00000000	      0.94427568	     -0.12554118	      0.31049377	      0.00000000	      0.00000000	      0.00000000	      0.00000000	      0.00000000	      0.00000000	      0.00000000	      0.00000000	      0.00000000	      0.00000000	      0.00000000	      0.00000000	      0.00000000	      0.00000000
      1.40000000	     -0.25289740	     -6.24515149	     88.44283873	      0.16855759	      0.96787281	      0.44117634	     32.88949867	     -1.81089187	     -5.33955720	     41.97607926	      0.73262079	     -0.07684899	      0.00000000	      0.00000000	      6.73485242	      4.34626088	      0.84907365	     11.19615113	      0.19540970	      3.97823353	      0.00000000	      0.00000000	      0.82201640	     -0.13472056	      0.11779756	      0.00000000	      0.00000000	      0.00000000	      0.00000000	      0.00000000	      0.00000000	      0.00000000	      0.00000000	      0.00000000	      0.00000000	      0.00000000	      0.00000000	      0.00000000	      0.00000000
      1.41000000	     -0.28081155	     -6.34922759	     88.56174241	      0.16828344	      0.96704409	      0.43229830	     32.90104270	     -1.83523318	     -6.05261502	     38.38370932	      0.66992211	     -0.17321686	     -0.00000000	      0.00000000	      5.96624505	      4.43182708	      1.10516252	     10.64678847	      0.18582151	      4.19708840	      0.00000000	      0.00000000	      0.92213751	     -0.16476333	     -0.03917478	      0.00000000	      0.00000000	      0.00000000	      0.00000000	      0.00000000	      0.00000000	     -0.00000000	      0.00000000	     -0.00000000	     -0.00000000	      0.00000000	      0.00000000	     -0.00000000	     -0.00000000
      1.42000000	     -0.36023180	     -6.10342567	     88.69525154	      0.16806219	      0.96655473	      0.42315508	     32.43934288	     -1.93620111	     -6.93947808	     34.67971205	      0.60527516	     -0.45682115	      0.00000000	      0.00000000	      4.76034491	      4.56799170	      1.32065840	     10.00805859	      0.17467357	      4.39197530	      0.00000000	      0.00000000	      0.61085754	     -0.27801178	     -0.23870746	      0.00000000	      0.00000000	      0.00000000	      0.00000000	      0.00000000	      0.00000000	      0.00000000	      0.00000000	      0.00000000	      0.00000000	      0.00000000	      0.00000000	      0.00000000	      0.00000000
